<?xml version="1.0" encoding="utf-8"?>
<!-- Generator: Adobe Illustrator 27.5.0, SVG Export Plug-In . SVG Version: 6.00 Build 0)  -->
<svg version="1.1" xmlns="http://www.w3.org/2000/svg" xmlns:xlink="http://www.w3.org/1999/xlink" x="0px" y="0px"
	 viewBox="0 0 3710 3710" style="enable-background:new 0 0 3710 3710;" xml:space="preserve">
<g id="Background">
	<g>
		<g>
			<rect style="fill:#FFFFFF;" width="3710" height="3710"/>
		</g>
	</g>
</g>
<g id="Illustration">
	<g>
		<linearGradient id="SVGID_1_" gradientUnits="userSpaceOnUse" x1="3621.9287" y1="4100.2271" x2="1121.0392" y2="994.2793">
			<stop  offset="0" style="stop-color:#DAE3FE"/>
			<stop  offset="1" style="stop-color:#E9EFFD"/>
		</linearGradient>
		<path style="fill:url(#SVGID_1_);" d="M2933.918,2875.354c-57.444,60.475-111.798,99.475-154.741,130.287
			c-504.793,362.195-1102.097,256.617-1229.042,230.833c-187.456-38.073-549.806-111.668-811.777-419.742
			c-396.342-466.09-334.625-1200.401-27.196-1685.13c56.234-88.665,353.276-580.778,957.014-659.697
			c365.375-47.761,791.286,48.568,1099.718,306.973C3415.322,1321.293,3369.232,2417.069,2933.918,2875.354z"/>
		<g>
			<g style="opacity:0.58;">
				<path style="fill:#BDD0FB;" d="M1741.55,2433.477c0,0-320.907-1125.438-924.262-1716.748
					c-40.559-39.749-111.591-19.842-125.099,35.233C601.866,1120.236,442.862,2231.218,1741.55,2433.477z"/>
				<path style="opacity:0.5;fill:#FFFFFF;" d="M1620.965,2366.198c2.987,2.568-0.688,7.074-4.014,4.923
					c-122.639-79.313-599.961-475.659-800.377-1305.283c-0.643-2.665,3.435-3.909,4.316-1.312
					C885.831,1255.855,1148.563,1960.123,1620.965,2366.198z"/>
			</g>
			<g style="opacity:0.79;">
				<path style="fill:#91B3FA;" d="M1808.958,2074.891c0,0-142.061-1007.973-549.833-1582.894
					c-27.412-38.648-83.678-28.816-99.11,17.465C1056.825,818.932,832.48,1764.351,1808.958,2074.891z"/>
				<path style="opacity:0.5;fill:#FFFFFF;" d="M1722.766,2004.062c2.052,2.536-1.18,6.054-3.53,3.844
					c-86.656-81.463-415.843-474.425-492.869-1213.691c-0.247-2.375,2.992-3.027,3.429-0.686
					C1261.904,965.971,1398.247,1603.188,1722.766,2004.062z"/>
			</g>
		</g>
		<g>
			<g>
				<g>
					
						<linearGradient id="SVGID_00000094589479081493954660000013164682791208349586_" gradientUnits="userSpaceOnUse" x1="1916.9408" y1="792.6296" x2="2698.2856" y2="792.6296">
						<stop  offset="0" style="stop-color:#4F52FF"/>
						<stop  offset="1" style="stop-color:#4042E2"/>
					</linearGradient>
					<path style="fill:url(#SVGID_00000094589479081493954660000013164682791208349586_);" d="M2689.789,1122.038
						c-4.537,0-8.298-3.588-8.477-8.161c-0.166-4.255-18.677-427.362-203.331-579.516c-54.53-44.931-118.953-62.027-191.491-50.796
						c-152.929,23.667-258.73,136.258-314.457,334.644c-41.945,149.318-38.048,293.638-38.002,295.078
						c0.143,4.686-3.538,8.603-8.224,8.747c-4.573,0.182-8.603-3.535-8.749-8.221c-0.043-1.463-4.043-148.041,38.523-299.828
						c25.118-89.559,61.299-163.51,107.542-219.798c58.231-70.878,132.507-113.743,220.768-127.403
						c77.552-11.998,146.476,6.333,204.906,54.486c80.209,66.101,139.846,185.958,177.258,356.245
						c27.721,126.16,32.182,234.625,32.225,235.706c0.182,4.684-3.469,8.629-8.155,8.812
						C2690.015,1122.037,2689.902,1122.038,2689.789,1122.038z"/>
					<path style="fill:#7D97F4;" d="M1215.6,2944.281L1505.205,980.93l1087.935-17.982l350.657,2090.454H1309.805
						C1251.682,3053.402,1207.118,3001.782,1215.6,2944.281z"/>
					<path style="fill:#91B3FA;" d="M2804.433,980.93l-211.293-17.982l350.657,2090.454h209.763
						c42.529,0,74.313-39.085,65.643-80.72L2804.433,980.93z"/>
					
						<linearGradient id="SVGID_00000137839198739536418590000014285905243636134554_" gradientUnits="userSpaceOnUse" x1="1683.1663" y1="788.1337" x2="2464.5142" y2="788.1337">
						<stop  offset="0" style="stop-color:#4F52FF"/>
						<stop  offset="1" style="stop-color:#4042E2"/>
					</linearGradient>
					<path style="fill:url(#SVGID_00000137839198739536418590000014285905243636134554_);" d="M1691.767,1117.543
						c-4.57,0-8.34-3.63-8.483-8.226c-0.043-1.464-4.043-148.041,38.526-299.827c25.115-89.559,61.299-163.51,107.542-219.798
						c58.231-70.878,132.507-113.742,220.768-127.402c77.549-12.002,146.476,6.331,204.906,54.486
						c80.208,66.099,139.846,185.956,177.258,356.243c27.721,126.16,32.182,234.625,32.225,235.706
						c0.182,4.684-3.469,8.629-8.155,8.811c-0.109,0.005-0.222,0.007-0.335,0.007c-4.537,0-8.298-3.588-8.477-8.161
						c-0.166-4.255-18.677-427.362-203.331-579.517c-54.53-44.93-118.95-62.029-191.491-50.795
						c-153.029,23.682-258.863,136.394-314.56,335.004c-41.875,149.308-37.949,293.279-37.902,294.715
						c0.146,4.688-3.535,8.604-8.224,8.75C1691.943,1117.541,1691.853,1117.543,1691.767,1117.543z"/>
				</g>
			</g>
			<g>
				<g>
					
						<linearGradient id="SVGID_00000086679060213255931870000006410684646251101096_" gradientUnits="userSpaceOnUse" x1="3591.064" y1="35.5601" x2="3224.269" y2="483.8651">
						<stop  offset="0" style="stop-color:#FF928E"/>
						<stop  offset="1" style="stop-color:#FE7062"/>
					</linearGradient>
					<path style="fill:url(#SVGID_00000086679060213255931870000006410684646251101096_);" d="M2771.23,1417.19
						c1.822-4.027,1.918-8.622,0.276-12.724c-24.482-61.146-112.304-280.077-115.775-282.797
						c-4.035-3.162-129.919-122.964-129.919-122.964c-23.194-22.06-31.773-2.107-31.773-2.107l-59.428,205.75l116.707,281.509
						c3.301,7.962,12.253,11.951,20.38,9.081l190.156-67.141C2766.022,1424.325,2769.408,1421.217,2771.23,1417.19z
						 M2506.552,1073.144c-10.027-7.857-11.785-22.354-3.929-32.38c7.856-10.026,22.354-11.786,32.38-3.929
						c10.026,7.857,11.785,22.354,3.929,32.38C2531.075,1079.242,2516.578,1081.001,2506.552,1073.144z"/>
					<g>
						<path style="opacity:0.7;fill:#FFFFFF;" d="M2566.955,1261.217c16.297,31.524,10.949,54.408-4.133,62.206
							c-15.421,7.973-36.289-1.65-51.328-30.322c-14.634-28.302-12.238-53.158,4.708-61.921
							C2533.657,1222.157,2553.036,1234.297,2566.955,1261.217z M2595.637,1386.061l-16.053-187.649l11.863-6.134l16.052,187.65
							L2595.637,1386.061z M2526.946,1283.945c8.754,17.344,19.873,27.633,28.175,23.339c8.306-4.294,6.184-18.36-3.214-36.535
							c-8.565-16.568-18.854-28.16-27.835-23.516C2515.6,1251.613,2518.261,1267.148,2526.946,1283.945z M2674.994,1284.09
							c16.179,31.29,11.118,54.318-4.134,62.205c-15.25,7.885-36.287-1.651-51.277-30.642c-14.513-28.07-12.237-53.156,4.539-61.831
							C2641.579,1244.797,2661.077,1257.169,2674.994,1284.09z M2634.987,1306.814c8.634,17.114,19.87,27.635,28.173,23.34
							c8.473-4.38,6.186-18.361-3.212-36.536c-8.685-16.797-18.855-28.159-27.835-23.516
							C2623.639,1274.483,2626.303,1290.019,2634.987,1306.814z"/>
					</g>
				</g>
				<g>
					
						<linearGradient id="SVGID_00000161613657065453131320000018248771907438797471_" gradientUnits="userSpaceOnUse" x1="2549.4353" y1="1326.1605" x2="2619.8618" y2="1326.1605" gradientTransform="matrix(1.1097 0.1773 -0.1578 0.9875 -171.1313 -749.9972)">
						<stop  offset="0" style="stop-color:#09005D"/>
						<stop  offset="1" style="stop-color:#1A0F91"/>
					</linearGradient>
					<path style="fill:url(#SVGID_00000161613657065453131320000018248771907438797471_);" d="M2516.216,1049.823
						c-2.491-0.398-4.646-2.083-5.323-4.417l0,0c-0.414-1.413-10.653-34.758-54.368-48.438c-3.392-1.062-5.279-4.353-4.217-7.352
						c1.063-2.999,4.672-4.576,8.065-3.509c50.741,15.88,62.501,55.146,62.976,56.81c0.888,3.107-1.181,6.179-4.622,6.861
						C2517.882,1049.947,2517.031,1049.954,2516.216,1049.823z"/>
				</g>
			</g>
		</g>
		<g>
			
				<linearGradient id="SVGID_00000104703959310196968300000016007892033185158071_" gradientUnits="userSpaceOnUse" x1="3362.9878" y1="968.6151" x2="2609.0945" y2="2809.2031">
				<stop  offset="0" style="stop-color:#FF928E"/>
				<stop  offset="1" style="stop-color:#FE7062"/>
			</linearGradient>
			<path style="fill:url(#SVGID_00000104703959310196968300000016007892033185158071_);" d="M2306.04,2936.439l486.992-932.973
				h-99.775c-18.399,0-28.517-21.391-16.848-35.615l519.036-632.599c22.495-27.418,66.932-10.028,64.844,25.375l-36.485,618.605
				c-2.089,35.413-33.49,61.806-68.734,57.772l-69.564-7.961l-483.194,1046.424c-12.579,27.24-39.846,44.683-69.851,44.683h-167.469
				L2306.04,2936.439z"/>
			
				<linearGradient id="SVGID_00000071560041361657222900000001678501072318577316_" gradientUnits="userSpaceOnUse" x1="2613.1545" y1="3230.6335" x2="2001.8903" y2="2354.4883">
				<stop  offset="0" style="stop-color:#FF928E"/>
				<stop  offset="1" style="stop-color:#FE7062"/>
			</linearGradient>
			<path style="fill:url(#SVGID_00000071560041361657222900000001678501072318577316_);" d="M1903.403,2282.102l343.806,763.723
				c20.364,45.236,65.362,74.325,114.97,74.325h177.24c23.516,0,45.182-12.757,56.59-33.32l6.303-11.363l0,0
				c-19.043,0-36.479-10.677-45.135-27.638l-458.081-897.542L1903.403,2282.102z"/>
			
				<linearGradient id="SVGID_00000098208760520755097310000004558533919185853630_" gradientUnits="userSpaceOnUse" x1="2202.8872" y1="2577.7922" x2="1155.4768" y2="2597.8706">
				<stop  offset="0" style="stop-color:#FF928E"/>
				<stop  offset="1" style="stop-color:#FE7062"/>
			</linearGradient>
			<path style="fill:url(#SVGID_00000098208760520755097310000004558533919185853630_);" d="M2145.364,2240.944L2145.364,2240.944
				c-34.476-27.224-84.848-19.221-109.188,17.348l-505.492,759.463c-40.485,60.827-108.712,97.374-181.78,97.374h-71.129
				l-57.886-166.754c0,0,469.932-720.556,591.055-829.555c0,0,120.621-108.712,239.551-26.518
				c31.42,21.715,55.276,52.708,69.847,88.013L2145.364,2240.944z"/>
			
				<linearGradient id="SVGID_00000136404699036994320090000008519544621957821077_" gradientUnits="userSpaceOnUse" x1="1377.9916" y1="3142.3523" x2="996.5249" y2="2615.3264">
				<stop  offset="0" style="stop-color:#FF928E"/>
				<stop  offset="1" style="stop-color:#FE7062"/>
			</linearGradient>
			<path style="fill:url(#SVGID_00000136404699036994320090000008519544621957821077_);" d="M670.098,2499.896
				c0,0,84.615-105.766,248.583-122.219c0,0,77.877,26.532,233.025,304.539c155.149,278.007,258.132,404.783,378.978,335.539
				l-10.005,16.612c-32.971,54.745-92.21,88.219-156.117,88.219h-66.836c-73.587,0-142.666-35.379-185.638-95.115
				C991.336,2859.61,744.276,2525.955,670.098,2499.896z"/>
			<path style="opacity:0.66;fill:#FFFFFF;" d="M3201.727,1556.499c-0.192,0-0.385-0.01-0.58-0.033
				c-2.796-0.317-4.805-2.839-4.487-5.634l3.423-30.205c0.318-2.796,2.829-4.812,5.634-4.487c2.796,0.317,4.805,2.839,4.487,5.635
				l-3.422,30.205C3206.486,1554.578,3204.284,1556.499,3201.727,1556.499z"/>
			<path style="opacity:0.66;fill:#FFFFFF;" d="M2768.446,1937.783c-1.084,0-2.179-0.345-3.104-1.058
				c-2.229-1.715-2.646-4.913-0.929-7.143l428.595-556.899c5.057-6.575,13.624-8.898,21.304-5.785
				c7.687,3.109,12.221,10.732,11.285,18.968l-7.561,66.754c-0.319,2.794-2.849,4.82-5.635,4.487
				c-2.796-0.315-4.805-2.839-4.487-5.634l7.561-66.754c0.507-4.484-2.242-7.266-4.985-8.377c-2.749-1.109-6.659-1.02-9.412,2.557
				l-428.595,556.899C2771.484,1937.1,2769.971,1937.783,2768.446,1937.783z"/>
			<path style="opacity:0.66;fill:#FFFFFF;" d="M1796.135,2521.601c-0.982,0-1.973-0.282-2.845-0.871
				c-2.331-1.574-2.948-4.741-1.373-7.072l221.66-328.562c8.006-11.869,21.334-18.308,35.588-17.225
				c14.277,1.083,26.458,9.457,32.58,22.398c1.204,2.544,0.119,5.58-2.424,6.784c-2.537,1.205-5.581,0.118-6.782-2.426
				c-4.54-9.591-13.564-15.796-24.146-16.598c-10.539-0.801-20.438,3.968-26.371,12.764l-221.66,328.562
				C1799.379,2520.815,1797.77,2521.601,1796.135,2521.601z"/>
			<path style="opacity:0.66;fill:#FFFFFF;" d="M1738.534,2606.983c-0.982,0-1.973-0.282-2.845-0.871
				c-2.331-1.573-2.948-4.739-1.373-7.072l14.21-21.067c1.572-2.336,4.742-2.943,7.07-1.375c2.331,1.574,2.948,4.739,1.373,7.072
				l-14.21,21.067C1741.777,2606.198,1740.169,2606.983,1738.534,2606.983z"/>
		</g>
		<g>
			<g>
				<g>
					
						<linearGradient id="SVGID_00000138533418972227705820000015827375841684883620_" gradientUnits="userSpaceOnUse" x1="1164.2733" y1="603.0655" x2="1174.4613" y2="2600.0728">
						<stop  offset="0" style="stop-color:#09005D"/>
						<stop  offset="1" style="stop-color:#1A0F91"/>
					</linearGradient>
					<path style="fill:url(#SVGID_00000138533418972227705820000015827375841684883620_);" d="M1749.099,3157.846
						c-0.393,38.786-33.714,70.232-74.437,70.321l-984.402,2.145c-41.017,0.089-75.064-31.335-76.038-70.273l-45.871-1833.517
						c-1.091-43.596,33.336-78.85,76.884-78.641l1044.93,4.995c43.217,0.207,77.883,35.642,77.443,79.047L1749.099,3157.846z"/>
					<path style="fill:#91B3FA;" d="M1660.371,1437.742c0.294-41.892-34.077-76.08-76.78-76.268l-829.354-3.646
						c-42.966-0.189-77.06,33.817-76.141,75.859l34.094,1558.925c0.835,38.184,34.605,69.019,75.419,68.955l787.919-1.25
						c40.576-0.064,73.677-30.905,73.944-68.965L1660.371,1437.742z"/>
					
						<linearGradient id="SVGID_00000026876620795554465390000006634879898284343173_" gradientUnits="userSpaceOnUse" x1="1175.9684" y1="1012.5707" x2="1170.938" y2="1319.4244">
						<stop  offset="0" style="stop-color:#4042E2"/>
						<stop  offset="1" style="stop-color:#4F52FF"/>
					</linearGradient>
					<path style="opacity:0.54;fill:url(#SVGID_00000026876620795554465390000006634879898284343173_);" d="M1293.876,1302.153
						c0.022,8.128-6.516,14.684-14.601,14.648l-215.838-0.978c-8.103-0.037-14.751-6.66-14.849-14.798l0,0
						c-0.098-8.143,6.399-14.718,14.51-14.68l216.083,1.009C1287.277,1287.391,1293.856,1294.019,1293.876,1302.153
						L1293.876,1302.153z"/>
				</g>
			</g>
			<g>
				<g>
					
						<linearGradient id="SVGID_00000038396626137202622720000017968330853689679748_" gradientUnits="userSpaceOnUse" x1="611.7069" y1="1742.1917" x2="611.7069" y2="3078.3979">
						<stop  offset="0" style="stop-color:#4042E2"/>
						<stop  offset="1" style="stop-color:#4F52FF"/>
					</linearGradient>
					<path style="fill:url(#SVGID_00000038396626137202622720000017968330853689679748_);" d="M647.595,1357.796
						c-5.393,0-10.412,2.003-13.299,6.558c-60.69,95.773-121.388,194.958-182.078,286.556c59.647,0,119.293,0,178.938,0
						c46.68-91.598,93.361-193.664,140.041-293.114C729.993,1357.796,688.793,1357.796,647.595,1357.796z"/>
					
						<linearGradient id="SVGID_00000097489462788999342860000014226368861276733107_" gradientUnits="userSpaceOnUse" x1="767.5378" y1="1514.3339" x2="776.9384" y2="1858.3888">
						<stop  offset="0" style="stop-color:#FF928E"/>
						<stop  offset="1" style="stop-color:#FE7062"/>
					</linearGradient>
					<path style="fill:url(#SVGID_00000097489462788999342860000014226368861276733107_);" d="M810.093,1653.119
						c-59.646,0-119.291,0-178.937,0c46.68-98.214,93.361-196.429,140.041-294.644c44.086,0,88.171,0,132.258,0
						C872.334,1456.689,841.214,1554.904,810.093,1653.119z"/>
					<g>
						
							<linearGradient id="SVGID_00000005233565168226362620000011844800410626286004_" gradientUnits="userSpaceOnUse" x1="922.9037" y1="1744.8766" x2="922.9037" y2="3088.0571">
							<stop  offset="0" style="stop-color:#4042E2"/>
							<stop  offset="1" style="stop-color:#4F52FF"/>
						</linearGradient>
						<path style="fill:url(#SVGID_00000005233565168226362620000011844800410626286004_);" d="M989.032,1653.119
							c-59.646,0-119.292,0-178.939,0c31.121-98.214,62.242-196.429,93.361-294.644c44.087,0,88.172,0,132.261,0
							C1020.153,1456.689,1004.592,1554.904,989.032,1653.119z"/>
					</g>
					
						<linearGradient id="SVGID_00000013915805080080908350000001397639597944438963_" gradientUnits="userSpaceOnUse" x1="1078.7363" y1="1514.4021" x2="1088.218" y2="1861.4249">
						<stop  offset="0" style="stop-color:#FF928E"/>
						<stop  offset="1" style="stop-color:#FE7062"/>
					</linearGradient>
					<path style="fill:url(#SVGID_00000013915805080080908350000001397639597944438963_);" d="M1167.971,1653.119
						c-59.646,0-119.292,0-178.939,0c15.56-98.214,31.121-196.429,46.683-294.644c44.085,0,88.171,0,132.256,0
						C1167.971,1456.689,1167.971,1554.904,1167.971,1653.119z"/>
					<g>
						
							<linearGradient id="SVGID_00000142164531918628642560000013957543535552231574_" gradientUnits="userSpaceOnUse" x1="1257.4402" y1="1744.8766" x2="1257.4402" y2="3088.0571">
							<stop  offset="0" style="stop-color:#4042E2"/>
							<stop  offset="1" style="stop-color:#4F52FF"/>
						</linearGradient>
						<path style="fill:url(#SVGID_00000142164531918628642560000013957543535552231574_);" d="M1346.91,1653.119
							c-59.645,0-119.291,0-178.939,0c0-98.214,0-196.429,0-294.644c44.087,0,88.169,0,132.259,0
							C1315.789,1456.689,1331.349,1554.904,1346.91,1653.119z"/>
					</g>
					
						<linearGradient id="SVGID_00000035517345624764332550000005930309389201668521_" gradientUnits="userSpaceOnUse" x1="1413.2589" y1="1513.833" x2="1422.8217" y2="1863.8239">
						<stop  offset="0" style="stop-color:#FF928E"/>
						<stop  offset="1" style="stop-color:#FE7062"/>
					</linearGradient>
					<path style="fill:url(#SVGID_00000035517345624764332550000005930309389201668521_);" d="M1525.849,1653.119
						c-59.649,0-119.292,0-178.939,0c-15.559-98.214-31.119-196.429-46.68-294.644c44.086,0,88.171,0,132.258,0
						C1463.607,1456.689,1494.728,1554.904,1525.849,1653.119z"/>
					<g>
						
							<linearGradient id="SVGID_00000097482745680352541470000011689412648536281490_" gradientUnits="userSpaceOnUse" x1="1568.6368" y1="1744.8766" x2="1568.6368" y2="3088.0571">
							<stop  offset="0" style="stop-color:#4042E2"/>
							<stop  offset="1" style="stop-color:#4F52FF"/>
						</linearGradient>
						<path style="fill:url(#SVGID_00000097482745680352541470000011689412648536281490_);" d="M1704.786,1653.119
							c-59.646,0-119.292,0-178.938,0c-31.121-98.214-62.242-196.429-93.361-294.644c44.089,0,88.171,0,132.261,0
							C1611.425,1456.689,1658.103,1554.904,1704.786,1653.119z"/>
					</g>
					
						<linearGradient id="SVGID_00000062904486894887921310000000751541840028966530_" gradientUnits="userSpaceOnUse" x1="1724.4562" y1="1512.4166" x2="1734.0514" y2="1863.5953">
						<stop  offset="0" style="stop-color:#FF928E"/>
						<stop  offset="1" style="stop-color:#FE7062"/>
					</linearGradient>
					<path style="fill:url(#SVGID_00000062904486894887921310000000751541840028966530_);" d="M1701.645,1364.355
						c-2.887-4.556-7.906-6.559-13.299-6.559c-41.2,0-82.4,0-123.598,0c46.677,99.449,93.355,201.516,140.038,293.114
						c59.642,0,119.288,0,178.937,0C1823.033,1559.312,1762.335,1460.128,1701.645,1364.355z"/>
				</g>
				<g>
					
						<linearGradient id="SVGID_00000016074686908978664850000008343308324791783569_" gradientUnits="userSpaceOnUse" x1="541.6974" y1="1565.0974" x2="540.0479" y2="1965.9083">
						<stop  offset="0" style="stop-color:#4042E2"/>
						<stop  offset="1" style="stop-color:#4F52FF"/>
					</linearGradient>
					<path style="fill:url(#SVGID_00000016074686908978664850000008343308324791783569_);" d="M449.641,1650.91v51.04
						c0,42.51,43.189,74.58,92.471,74.58h1.919c49.282,0,88.807-32.07,88.807-74.58v-51.04H449.641z"/>
					
						<linearGradient id="SVGID_00000175294004955388727840000007241903073161884814_" gradientUnits="userSpaceOnUse" x1="713.5518" y1="632.9931" x2="716.9479" y2="1142.3806">
						<stop  offset="0" style="stop-color:#FF928E"/>
						<stop  offset="1" style="stop-color:#FE7062"/>
					</linearGradient>
					<path style="fill:url(#SVGID_00000175294004955388727840000007241903073161884814_);" d="M632.837,1650.91v51.04
						c0,42.51,38.091,74.58,86.541,74.58h1.887c48.45,0,86.917-32.07,86.917-74.58v-51.04H632.837z"/>
				</g>
				<g>
					
						<linearGradient id="SVGID_00000090292304140599176250000005669289548813091762_" gradientUnits="userSpaceOnUse" x1="898.9297" y1="1565.1074" x2="897.2803" y2="1965.897">
						<stop  offset="0" style="stop-color:#4042E2"/>
						<stop  offset="1" style="stop-color:#4F52FF"/>
					</linearGradient>
					<path style="fill:url(#SVGID_00000090292304140599176250000005669289548813091762_);" d="M808.182,1650.91v51.04
						c0,42.51,42.193,74.58,91.475,74.58h1.919c49.281,0,87.185-32.07,87.185-74.58v-51.04H808.182z"/>
					
						<linearGradient id="SVGID_00000042702102309975629250000017600535975490372268_" gradientUnits="userSpaceOnUse" x1="1070.7683" y1="630.6127" x2="1074.1646" y2="1140.001">
						<stop  offset="0" style="stop-color:#FF928E"/>
						<stop  offset="1" style="stop-color:#FE7062"/>
					</linearGradient>
					<path style="fill:url(#SVGID_00000042702102309975629250000017600535975490372268_);" d="M988.761,1650.91v51.04
						c0,42.51,39.712,74.58,88.162,74.58h1.887c48.45,0,87.913-32.07,87.913-74.58v-51.04H988.761z"/>
				</g>
				<g>
					
						<linearGradient id="SVGID_00000133517764151027625310000000501439928939212960_" gradientUnits="userSpaceOnUse" x1="1256.1622" y1="1565.1173" x2="1254.5128" y2="1965.8856">
						<stop  offset="0" style="stop-color:#4042E2"/>
						<stop  offset="1" style="stop-color:#4F52FF"/>
					</linearGradient>
					<path style="fill:url(#SVGID_00000133517764151027625310000000501439928939212960_);" d="M1166.723,1650.91v51.04
						c0,42.51,41.197,74.58,90.479,74.58h1.919c49.282,0,85.564-32.07,85.564-74.58v-51.04H1166.723z"/>
					
						<linearGradient id="SVGID_00000008862244893050423860000009447758550281911469_" gradientUnits="userSpaceOnUse" x1="1427.9849" y1="628.2307" x2="1431.3811" y2="1137.6184">
						<stop  offset="0" style="stop-color:#FF928E"/>
						<stop  offset="1" style="stop-color:#FE7062"/>
					</linearGradient>
					<path style="fill:url(#SVGID_00000008862244893050423860000009447758550281911469_);" d="M1344.685,1650.91v51.04
						c0,42.51,41.333,74.58,89.783,74.58h1.886c48.45,0,88.909-32.07,88.909-74.58v-51.04H1344.685z"/>
				</g>
				<g>
					
						<linearGradient id="SVGID_00000030467611901049115040000006188003768440034434_" gradientUnits="userSpaceOnUse" x1="1616.0117" y1="1565.1018" x2="1614.3622" y2="1965.9175">
						<stop  offset="0" style="stop-color:#4042E2"/>
						<stop  offset="1" style="stop-color:#4F52FF"/>
					</linearGradient>
					<path style="fill:url(#SVGID_00000030467611901049115040000006188003768440034434_);" d="M1525.264,1650.91v51.04
						c0,42.51,40.201,74.58,89.483,74.58h1.919c49.281,0,89.177-32.07,89.177-74.58v-51.04H1525.264z"/>
					
						<linearGradient id="SVGID_00000147218563847335148730000011926858257293439396_" gradientUnits="userSpaceOnUse" x1="1786.5099" y1="625.8409" x2="1789.9061" y2="1135.2285">
						<stop  offset="0" style="stop-color:#FF928E"/>
						<stop  offset="1" style="stop-color:#FE7062"/>
					</linearGradient>
					<path style="fill:url(#SVGID_00000147218563847335148730000011926858257293439396_);" d="M1705.843,1650.91v51.04
						c0,42.51,37.721,74.58,86.17,74.58h1.887c48.45,0,87.288-32.07,87.288-74.58v-51.04H1705.843z"/>
				</g>
			</g>
			<g>
				<path style="opacity:0.7;fill:#FFFFFF;" d="M1449.744,2003.463c-3.328-4.091-8.547-5.789-14.083-5.673l-504.049,10.574
					l-12.733-40.446c-1.77-5.635-7.068-9.243-13.061-9.085l-69.205,1.818c-7.421,0.195-13.431,5.355-13.431,12.762
					c0,7.406,6.01,12.267,13.431,12.091l59.14-1.397l107.012,341.951c1.802,5.755,7.205,9.714,13.33,9.796l353.789,4.75
					c8.303,0.111,15.044-5.099,15.044-12.95c0-7.849-6.741-13.225-15.044-13.314l-343.466-3.702l-27.566-88.785l377.44,0.572
					c7.728,0.012,14.54-5.046,16.706-12.059l59.571-192.612C1454.123,2012.73,1453.076,2007.557,1449.744,2003.463z"/>
				<path style="opacity:0.7;fill:#FFFFFF;" d="M1067.852,2356.947c-29.109-0.453-52.66,22.204-52.66,50.502
					c0,28.299,23.55,51.939,52.66,52.703c29.285,0.77,53.242-21.877,53.242-50.489S1097.137,2357.402,1067.852,2356.947z
					 M1067.852,2432.631c-13.605-0.319-24.647-11.352-24.647-24.596c0-13.245,11.041-23.817,24.647-23.566
					c13.643,0.251,24.773,11.287,24.773,24.6C1092.625,2422.38,1081.495,2432.95,1067.852,2432.631z"/>
				<path style="opacity:0.7;fill:#FFFFFF;" d="M1303.692,2360.613c-30.551-0.475-55.266,22.724-55.266,51.713
					c0,28.988,24.715,53.22,55.266,54.023c30.741,0.808,55.892-22.382,55.892-51.699
					C1359.584,2385.333,1334.433,2361.091,1303.692,2360.613z M1303.692,2438.152c-14.28-0.334-25.868-11.644-25.868-25.212
					c0-13.569,11.588-24.394,25.868-24.131c14.321,0.264,26.004,11.575,26.004,25.215
					C1329.697,2427.664,1318.013,2438.487,1303.692,2438.152z"/>
			</g>
			<path style="opacity:0.7;fill:#FFFFFF;" d="M1493.469,2792.159H854.661c-5.523,0-10-4.477-10-10v-183.755c0-5.523,4.477-10,10-10
				h638.808c5.523,0,10,4.477,10,10v183.755C1503.469,2787.682,1498.992,2792.159,1493.469,2792.159z"/>
			<path style="opacity:0.7;fill:#FFFFFF;" d="M1459.51,2941.575H875.036c-5.523,0-10-4.477-10-10v-75.086c0-5.523,4.477-10,10-10
				h584.474c5.523,0,10,4.477,10,10v75.086C1469.51,2937.098,1465.033,2941.575,1459.51,2941.575z"/>
		</g>
		<g>
			
				<linearGradient id="SVGID_00000165203524037020339210000013786922990707222440_" gradientUnits="userSpaceOnUse" x1="-3523.7168" y1="1635.2863" x2="-3428.7019" y2="1873.6288" gradientTransform="matrix(-1 0 0 1 -1129.4081 0)">
				<stop  offset="0" style="stop-color:#09005D"/>
				<stop  offset="1" style="stop-color:#1A0F91"/>
			</linearGradient>
			<path style="fill:url(#SVGID_00000165203524037020339210000013786922990707222440_);" d="M2337.97,1763.495
				c0,0-32.032,15.581-37.922,33.479c-4.725,14.361-40.144,16.212-43.643,44.456c-1.806,14.583-12.597,26.261-27.122,28.487
				c-36.174,5.544-91.922,24.329-100.842,87.136c-6.809,47.939,17.63,66.117,43.278,72.409
				c18.838,4.621,31.356,22.944,27.546,41.962c-3.655,18.241,1.795,39.329,33.398,56.005
				c70.818,37.368,141.541-88.528,141.541-88.528l14.494-219.823L2337.97,1763.495z"/>
			
				<linearGradient id="SVGID_00000074408461271643575360000005060247963405891233_" gradientUnits="userSpaceOnUse" x1="2807.5137" y1="1295.3356" x2="2366.0442" y2="2361.6528">
				<stop  offset="0" style="stop-color:#FEBBBA"/>
				<stop  offset="1" style="stop-color:#FF928E"/>
			</linearGradient>
			<path style="fill:url(#SVGID_00000074408461271643575360000005060247963405891233_);" d="M2723.311,1711.382
				c0,0-141.397,223.651-309.536,266.85c0,0,32.762,93.313,58.05,103.993c0,0,206.858-172.599,260.017-339.063L2723.311,1711.382z"
				/>
			
				<linearGradient id="SVGID_00000091696858761065871440000001142802494223349155_" gradientUnits="userSpaceOnUse" x1="-3176.3835" y1="3161.179" x2="-3095.8147" y2="3161.179" gradientTransform="matrix(-1 0 0 1 -1129.4081 0)">
				<stop  offset="0" style="stop-color:#09005D"/>
				<stop  offset="1" style="stop-color:#1A0F91"/>
			</linearGradient>
			<path style="fill:url(#SVGID_00000091696858761065871440000001142802494223349155_);" d="M2046.88,3141.856l-4.583,37.673
				c-0.87,7.147-6.496,12.798-13.649,13.615c-12.077,1.38-31.458,2.794-50.42,0.789c-8.323-0.88-13.726-9.308-11.191-17.284
				c4.623-14.543,13.079-36.375,25.272-49.223h41.792C2041.826,3127.427,2047.813,3134.186,2046.88,3141.856z"/>
			
				<linearGradient id="SVGID_00000112625256001540760620000008490319581549243272_" gradientUnits="userSpaceOnUse" x1="2198.0535" y1="3110.0232" x2="2782.1521" y2="2587.052">
				<stop  offset="0" style="stop-color:#FEBBBA"/>
				<stop  offset="1" style="stop-color:#FF928E"/>
			</linearGradient>
			<path style="fill:url(#SVGID_00000112625256001540760620000008490319581549243272_);" d="M2374.205,2700.537l7.054,41.494
				c0,0-23.622,239.267-27.823,334.974c-0.659,15.005,3.223,29.833,11.099,42.622l41.074,66.7l-104.389-61.598l-2.078-12.739
				l17.089-23.496l-22.383-268.039c-1.315-15.746,1.934-31.538,9.359-45.485l21.592-40.564L2374.205,2700.537z"/>
			
				<linearGradient id="SVGID_00000047765829898081051970000003355399977605743036_" gradientUnits="userSpaceOnUse" x1="-3550.6992" y1="3146.469" x2="-3420.3328" y2="3146.469" gradientTransform="matrix(-1 0 0 1 -1129.4081 0)">
				<stop  offset="0" style="stop-color:#09005D"/>
				<stop  offset="1" style="stop-color:#1A0F91"/>
			</linearGradient>
			<path style="fill:url(#SVGID_00000047765829898081051970000003355399977605743036_);" d="M2412.482,3195.99h-33.313
				c-6.235,0-12.116-2.863-15.919-7.804c-10.385-13.494-31.901-39.821-42.19-40.508c-13.85-0.925-12.078,48.313-12.078,48.313
				h-7.764l-9.834-61.184c-2.474-15.395,5.181-30.645,19.005-37.857c0,0,3.166,23.414,20.333,33.771s69.858,47.446,69.858,47.446
				s6.454-0.92,13.539,0.36C2424.632,3180.425,2423.164,3195.99,2412.482,3195.99z"/>
			
				<linearGradient id="SVGID_00000125572443097918970450000014748407466415986335_" gradientUnits="userSpaceOnUse" x1="2169.5891" y1="2743.0664" x2="1989.6057" y2="3184.5361">
				<stop  offset="0" style="stop-color:#FEBBBA"/>
				<stop  offset="1" style="stop-color:#FF928E"/>
			</linearGradient>
			<path style="fill:url(#SVGID_00000125572443097918970450000014748407466415986335_);" d="M2231.226,2720.244
				c0,0-138.383,262.498-160.38,322.431c-21.998,59.933-29.704,109.93-29.999,114.664c-0.461,7.398-9.663,14.494-35.027,14.494
				c-13.09,0-19.5-5.247-22.64-10.326c-2.678-4.333-2.816-9.755-0.56-14.322c8.005-16.2,33.408-67.971,42.816-91.452
				c11.233-28.035,35.395-155.086,48.646-199.26c13.251-44.174,28.23-92.092,85.937-136.229
				C2160.021,2720.244,2199.634,2681.445,2231.226,2720.244z"/>
			
				<linearGradient id="SVGID_00000099658027990265539680000002257037307777564831_" gradientUnits="userSpaceOnUse" x1="2411.1563" y1="-742.8363" x2="2404.3638" y2="106.1431">
				<stop  offset="0" style="stop-color:#4042E2"/>
				<stop  offset="1" style="stop-color:#4F52FF"/>
			</linearGradient>
			<path style="fill:url(#SVGID_00000099658027990265539680000002257037307777564831_);" d="M2318.645,2290.127
				c35.696-151.26-54.733-236.811-54.733-236.811c57.059-54.77,161.021-79.693,161.021-79.693s99.202,72.526,87.434,129.293
				c-6.897,33.271-69.729,199.29-69.729,199.29S2384.537,2329.702,2318.645,2290.127z"/>
			
				<linearGradient id="SVGID_00000157999631485430032920000008496104423488710035_" gradientUnits="userSpaceOnUse" x1="2458.948" y1="2350.8264" x2="2784.9551" y2="1912.7544">
				<stop  offset="0" style="stop-color:#09005D"/>
				<stop  offset="1" style="stop-color:#1A0F91"/>
			</linearGradient>
			<path style="fill:url(#SVGID_00000157999631485430032920000008496104423488710035_);" d="M2239.501,2365.012
				c14.527-43.764,79.144-74.885,79.144-74.885c65.892,39.575,123.992,12.078,123.992,12.078s13.03,49.803,4.037,96.087
				c-8.993,46.284-65.415,343.737-65.415,343.737c-88.902,18.013-225.632-18.123-225.632-18.123
				C2212.254,2623.369,2224.974,2408.776,2239.501,2365.012z"/>
			
				<linearGradient id="SVGID_00000137838375543312625590000006542435168449411740_" gradientUnits="userSpaceOnUse" x1="2745.9771" y1="1550.4111" x2="2190.7712" y2="2125.9905">
				<stop  offset="0" style="stop-color:#FEBBBA"/>
				<stop  offset="1" style="stop-color:#FF928E"/>
			</linearGradient>
			<path style="fill:url(#SVGID_00000137838375543312625590000006542435168449411740_);" d="M2360.08,1873.665l-29.022,130.361
				c-2.779,11.482,7.689,9.603,19.298,7.415c19.011-3.584,43.515-10.966,51.706-25.76c0.834-1.506,1.25-3.208,1.485-4.913
				l12.469-90.395c0.989-7.172-2.888-14.132-9.506-17.067l-24.06-10.669C2373.186,1858.53,2362.463,1863.815,2360.08,1873.665z"/>
			<g>
				
					<linearGradient id="SVGID_00000013150677364850450270000012382146671790001323_" gradientUnits="userSpaceOnUse" x1="-3674.177" y1="1362.6635" x2="-3484.1396" y2="1024.4606" gradientTransform="matrix(-0.9809 -0.1943 -0.1943 0.9809 -900.3181 -99.2406)">
					<stop  offset="0" style="stop-color:#FEBBBA"/>
					<stop  offset="1" style="stop-color:#FF928E"/>
				</linearGradient>
				<path style="fill:url(#SVGID_00000013150677364850450270000012382146671790001323_);" d="M2415.668,1754.827
					c0,0,30.897,20.915,44.174,74.177s-8.299,72.368-30.416,71.197s-54.183-8.01-81.967-46.221
					C2319.675,1815.77,2375.18,1729.271,2415.668,1754.827z"/>
				
					<linearGradient id="SVGID_00000093881676731795037600000009551425904275076232_" gradientUnits="userSpaceOnUse" x1="-3633.3079" y1="1068.1425" x2="-3538.2893" y2="1306.4948" gradientTransform="matrix(-0.9809 -0.1943 -0.1943 0.9809 -900.3181 -99.2406)">
					<stop  offset="0" style="stop-color:#09005D"/>
					<stop  offset="1" style="stop-color:#1A0F91"/>
				</linearGradient>
				<path style="fill:url(#SVGID_00000093881676731795037600000009551425904275076232_);" d="M2375.478,1832.498
					c0,0-11.321-76.32,52.044-64.646l12.813,13.339c0,0,31.015-34.929-3.308-61.332s-81.952-19.642-108.304,28.426
					c-26.351,48.068-35.915,81.844-13.828,111.713c22.087,29.869,38.701,4.252,38.701,4.252s-10.129-25.851-1.725-36.944
					c8.405-11.093,19.249,6.451,19.249,6.451L2375.478,1832.498z"/>
				
					<linearGradient id="SVGID_00000163751660632871627290000008001030344884661648_" gradientUnits="userSpaceOnUse" x1="-3640.5979" y1="1390.9587" x2="-3450.5605" y2="1052.7562" gradientTransform="matrix(-0.9809 -0.1943 -0.1943 0.9809 -900.3181 -99.2406)">
					<stop  offset="0" style="stop-color:#FEBBBA"/>
					<stop  offset="1" style="stop-color:#FF928E"/>
				</linearGradient>
				<path style="fill:url(#SVGID_00000163751660632871627290000008001030344884661648_);" d="M2372.477,1845.825
					c0,0-5.589-39.266-25.643-28.041s7.228,36.68,18.166,45.341L2372.477,1845.825z"/>
			</g>
			<g>
				
					<linearGradient id="SVGID_00000111890075333009002100000013726336512187036850_" gradientUnits="userSpaceOnUse" x1="2898.8003" y1="1333.1296" x2="2457.3303" y2="2399.4487">
					<stop  offset="0" style="stop-color:#FEBBBA"/>
					<stop  offset="1" style="stop-color:#FF928E"/>
				</linearGradient>
				<path style="fill:url(#SVGID_00000111890075333009002100000013726336512187036850_);" d="M2722.34,1757.425
					c0.428,4.614-16.728,7.802-22.188-11.866c1.501-8.539,4.167-45.931,10.713-51.74c34.87-30.94,97.049-65.745,97.049-65.745
					c6.954,10.617-2.166,17.61-2.166,17.61l-31.039,20.947c3.238,10.724,7.963,20.205,8.497,32.448
					c0.405,9.271-3.02,18.349-9.174,25.381c-6.177,7.058-14.493,16.171-21.989,23.09
					C2737.855,1760.646,2722.34,1757.425,2722.34,1757.425z"/>
				
					<linearGradient id="SVGID_00000019679917196738353630000004966359289626786728_" gradientUnits="userSpaceOnUse" x1="2905.6206" y1="1091.8245" x2="2712.0542" y2="1815.1532">
					<stop  offset="0" style="stop-color:#FEBBBA"/>
					<stop  offset="1" style="stop-color:#FF928E"/>
				</linearGradient>
				<path style="fill:url(#SVGID_00000019679917196738353630000004966359289626786728_);" d="M2739.199,1742.182l-4.744-1.952
					c0.63-1.535,15.526-37.73,22.729-45.259c2.738-2.856,4.059-5.303,3.937-7.275c-0.061-1.067-0.59-2.121-1.593-3.195
					l-25.115,13.432l-11.094,17.369l-4.323-2.765l11.812-18.501l29.418-15.729l1.328,1.081c2.975,2.433,4.513,5.045,4.69,7.993
					c0.217,3.51-1.531,7.153-5.347,11.141C2755.47,1704.191,2743.394,1731.959,2739.199,1742.182z"/>
			</g>
			<g>
				
					<linearGradient id="SVGID_00000093168110424542691070000016323820585015748764_" gradientUnits="userSpaceOnUse" x1="-4762.8716" y1="2123.4614" x2="-4971.7529" y2="2180.7102" gradientTransform="matrix(-0.9988 -0.0494 -0.0494 0.9988 -2345.2417 -55.0328)">
					<stop  offset="0" style="stop-color:#09005D"/>
					<stop  offset="1" style="stop-color:#1A0F91"/>
				</linearGradient>
				<path style="fill:url(#SVGID_00000093168110424542691070000016323820585015748764_);" d="M2350.99,2369.926
					c0.198,0.01,0.396,0.015,0.596,0.013l259.275-0.28c6.409-0.005,11.599-5.152,11.593-11.494
					c-0.006-6.344-5.227-11.584-11.619-11.47l-259.275,0.28c-6.409,0.005-11.599,5.152-11.593,11.494
					C2339.974,2364.613,2344.857,2369.626,2350.99,2369.926z"/>
				
					<linearGradient id="SVGID_00000004545336674550183450000017514336422779459469_" gradientUnits="userSpaceOnUse" x1="-4976.9883" y1="2167.876" x2="-5124.3276" y2="2323.6042" gradientTransform="matrix(-1 0 0 1 -2386.7107 0)">
					<stop  offset="0" style="stop-color:#09005D"/>
					<stop  offset="1" style="stop-color:#1A0F91"/>
				</linearGradient>
				<path style="fill:url(#SVGID_00000004545336674550183450000017514336422779459469_);" d="M2843.937,2137.008h-215.926
					c-15.929,0-30.427,9.095-37.222,23.35l-99.822,209.432h268.338c10.265,0,19.488-6.206,23.261-15.652l77.408-193.798
					C2864.446,2149.142,2856.106,2137.008,2843.937,2137.008z"/>
				
					<ellipse transform="matrix(0.313 -0.9497 0.9497 0.313 -276.1749 4117.2773)" style="fill:#91B3FA;" cx="2708.008" cy="2249.546" rx="27.388" ry="16.994"/>
			</g>
			
				<linearGradient id="SVGID_00000055690148887706535240000000788322284494986391_" gradientUnits="userSpaceOnUse" x1="1963.9816" y1="2349.2595" x2="2419.4854" y2="2158.7048" gradientTransform="matrix(1 0 0 1 36.0251 0)">
				<stop  offset="0" style="stop-color:#FEBBBA"/>
				<stop  offset="1" style="stop-color:#FF928E"/>
			</linearGradient>
			<path style="fill:url(#SVGID_00000055690148887706535240000000788322284494986391_);" d="M2263.54,2053.628
				c-35.377,35.699-80.261,193.931-57.992,220.36c19.608,30.768,86.37,72.65,149.944,72.706h93.798
				c-39.414-41.877-66.551-52.499-98.875-23.215c-25.647-10.958-58.901-53.408-81.097-72.361
				c-8.715-7.441-10.771-20.136-4.943-30.002c17.633-29.851,39.747-60.542,46.779-90.268
				C2312.663,2096.012,2286.885,2056.143,2263.54,2053.628z"/>
		</g>
	</g>
</g>
</svg>
